<svg width="36" height="36" viewBox="0 0 36 36" fill="none" xmlns="http://www.w3.org/2000/svg">
<path d="M35.3339 18.1812C35.3339 22.0952 34.2196 25.615 31.991 28.7406C29.7625 31.8662 26.8845 34.0288 23.3571 35.2283C22.946 35.3078 22.6458 35.2534 22.4566 35.0654C22.3633 34.9745 22.2898 34.8654 22.2407 34.7448C22.1915 34.6242 22.1678 34.4948 22.171 34.3646V29.4291C22.171 27.9166 21.7756 26.8099 20.9849 26.1091C21.774 26.0279 22.5559 25.8874 23.3238 25.6886C24.0141 25.5017 24.7283 25.198 25.4665 24.7775C26.1747 24.3794 26.8017 23.8516 27.3149 23.2218C27.809 22.605 28.2119 21.7863 28.5238 20.7654C28.8357 19.7446 28.9916 18.5719 28.9916 17.2474C28.9916 15.3599 28.3912 13.7539 27.1905 12.4293C27.7512 11.0114 27.6898 9.42112 27.0066 7.65859C26.5814 7.51843 25.9659 7.60428 25.1599 7.91613C24.4291 8.19134 23.7263 8.53572 23.061 8.94457L22.1938 9.50521C20.7695 9.09842 19.295 8.89435 17.8137 8.89902C16.3324 8.89492 14.8579 9.09958 13.4337 9.50697C13.1166 9.28788 12.7935 9.07756 12.4648 8.87624C12.0618 8.62629 11.4264 8.32611 10.5586 7.9757C9.69311 7.6253 9.03902 7.52018 8.59635 7.66034C7.92824 9.42053 7.87568 11.0102 8.43867 12.4293C7.23561 13.7539 6.63409 15.3599 6.63409 17.2474C6.63409 18.5719 6.7906 19.7411 7.10363 20.7549C7.41549 21.7676 7.81436 22.5858 8.30026 23.2095C8.8025 23.8481 9.42662 24.3805 10.1364 24.7758C10.8746 25.1963 11.5894 25.5 12.2808 25.6868C12.9735 25.8761 13.7531 26.0168 14.6198 26.1091C14.0124 26.6697 13.6398 27.4727 13.502 28.5181C13.1756 28.677 12.8307 28.7947 12.4753 28.8685C12.0472 28.9525 11.6115 28.9918 11.1753 28.9859C10.6731 28.9859 10.1749 28.8183 9.68085 28.4831C9.18678 28.1467 8.76454 27.6596 8.41414 27.0219C8.14202 26.5384 7.76408 26.1227 7.30861 25.806C6.8601 25.4941 6.48341 25.3072 6.17856 25.2453L5.72304 25.1753C5.40417 25.1753 5.18342 25.2103 5.06077 25.2804C4.93813 25.3505 4.90017 25.4398 4.94689 25.5484C4.99748 25.6678 5.06667 25.7784 5.15188 25.8761C5.23988 25.9808 5.33984 26.0749 5.44972 26.1564L5.6074 26.272C5.94262 26.4297 6.27376 26.7264 6.6008 27.162C6.92784 27.5989 7.16728 27.996 7.31913 28.3534L7.54689 28.8913C7.74545 29.4835 8.08067 29.9629 8.55255 30.3297C9.02442 30.6976 9.53368 30.9312 10.0803 31.0305C10.6269 31.1321 11.1555 31.187 11.6659 31.1952C12.1751 31.2022 12.5974 31.1747 12.9326 31.1128L13.4564 31.02C13.4564 31.6122 13.4605 32.306 13.4687 33.1014L13.4792 34.3628C13.4792 34.6432 13.3799 34.8768 13.1814 35.0636C12.9852 35.2529 12.6815 35.3078 12.2703 35.2283C8.74177 34.0276 5.86378 31.865 3.63638 28.7406C1.40782 25.6138 0.293533 22.094 0.293533 18.1812C0.293533 14.9224 1.07669 11.9177 2.64299 9.16707C4.16046 6.46833 6.35945 4.21497 9.02034 2.63205C11.6738 1.03476 14.7167 0.201121 17.8137 0.223028C20.9113 0.200798 23.9549 1.03445 26.6088 2.63205C29.2691 4.21521 31.4675 6.46855 32.9844 9.16707C34.5507 11.9189 35.3339 14.9236 35.3339 18.1812Z" fill="white"/>
</svg>
