<svg width="36" height="36" viewBox="0 0 36 36" fill="none" xmlns="http://www.w3.org/2000/svg">
<path d="M6.87009 0.23175C3.09565 0.23175 0.00649261 3.32084 0.00649261 7.09535V28.3943C0.00649261 32.1687 3.09558 35.2568 6.87009 35.2568H28.1691C31.9435 35.2568 35.0315 32.1688 35.0315 28.3943V7.09535C35.0315 3.32091 31.9435 0.23175 28.1691 0.23175H6.87009ZM8.59639 6.01158C10.4062 6.01158 11.5209 7.19966 11.5553 8.76138C11.5553 10.2886 10.4061 11.5101 8.56139 11.5101H8.52743C6.75211 11.5101 5.60465 10.2887 5.60465 8.76138C5.60465 7.1997 6.78684 6.01158 8.59636 6.01158H8.59639ZM24.1922 13.3108C27.6727 13.3108 30.2818 15.5857 30.2818 20.4743V29.6006H24.9924V21.0862C24.9924 18.9467 24.2268 17.4869 22.3126 17.4869C20.8513 17.4869 19.9803 18.4708 19.5978 19.4212C19.4581 19.7613 19.4238 20.2362 19.4238 20.7118V29.6006H14.1343C14.1343 29.6006 14.2038 15.1775 14.1343 13.6841H19.4249V15.938C20.1278 14.8535 21.3851 13.3108 24.1922 13.3108V13.3108ZM5.91665 13.6852H11.2061V29.6006H5.91665V13.6852Z" fill="white"/>
</svg>
