<svg width="71" height="70" viewBox="13 18 45 43" fill="none" xmlns="http://www.w3.org/2000/svg">
<path d="M55.8334 20.2883H15.2567C13.7194 20.2883 12.245 20.899 11.1579 21.9861C10.0708 23.0732 9.46008 24.5476 9.46008 26.085V52.17C9.46008 53.7074 10.0708 55.1818 11.1579 56.2689C12.245 57.356 13.7194 57.9667 15.2567 57.9667H55.8334C57.3708 57.9667 58.8452 57.356 59.9323 56.2689C61.0194 55.1818 61.6301 53.7074 61.6301 52.17V26.085C61.6301 24.5476 61.0194 23.0732 59.9323 21.9861C58.8452 20.899 57.3708 20.2883 55.8334 20.2883ZM27.766 41.4925L32.4091 45.5502C33.2931 46.3212 34.4118 46.7037 35.5451 46.7037C36.6783 46.7037 37.7971 46.3183 38.6811 45.5502L43.3242 41.4925L43.217 41.5998L53.7843 52.1671H17.3059L27.8732 41.5998L27.766 41.4925ZM15.2567 50.1209V30.5484L25.6965 39.6811L15.2567 50.1209ZM45.3936 39.6811L55.8334 30.5484V50.1122L45.3936 39.6811ZM55.8334 26.085V26.6936L36.774 43.3707C36.4249 43.6491 35.9916 43.8007 35.5451 43.8007C35.0986 43.8007 34.6653 43.6491 34.3162 43.3707L15.2567 26.6936V26.085H55.8334Z" fill="white"/>
</svg>
